<?xml version="1.0" standalone="no"?>
<!DOCTYPE svg PUBLIC "-//W3C//DTD SVG 20010904//EN"
 "http://www.w3.org/TR/2001/REC-SVG-20010904/DTD/svg10.dtd">
<svg version="1.0" xmlns="http://www.w3.org/2000/svg"
 width="1920.000000pt" height="1180.000000pt" viewBox="0 0 1920.000000 1180.000000"
 preserveAspectRatio="xMidYMid meet">
 

<g transform="translate(0.000000,1180.000000) scale(0.100000,-0.100000)"
fill="#000000" stroke="none">
<path d="M0 5900 l0 -5900 9600 0 9600 0 0 5900 0 5900 -9600 0 -9600 0 0
-5900z m10922 3592 c74 -30 158 -93 198 -148 17 -24 28 -45 23 -45 -4 -1 -29
-1 -55 0 -38 2 -48 -1 -48 -13 0 -9 -4 -16 -10 -16 -5 0 -10 7 -10 15 0 12
-27 14 -169 14 -124 0 -171 -3 -174 -12 -5 -17 -37 16 -37 40 0 36 -13 40
-130 41 -120 1 -130 -2 -130 -45 0 -21 -15 -29 -44 -24 -4 1 -14 -6 -22 -16
-12 -17 -13 -17 -14 -1 0 16 -15 18 -170 17 -150 -1 -170 -4 -170 -18 -1 -14
-2 -14 -13 1 -12 14 -36 17 -179 17 -125 1 -168 -2 -171 -11 -4 -10 -8 -10
-15 1 -14 19 -330 10 -342 -10 -5 -7 -12 -10 -16 -6 -12 12 62 110 113 149 54
41 128 75 188 88 22 4 333 7 690 7 l650 -2 57 -23z m-196 -635 l24 -28 0 -329
c0 -193 -4 -339 -10 -355 -20 -53 -38 -55 -543 -55 -320 0 -474 4 -497 11 -57
20 -60 40 -60 394 0 340 3 365 53 385 12 5 241 8 515 7 l494 -2 24 -28z
m-1566 -899 c-1 -91 3 -137 15 -178 36 -116 136 -228 253 -283 l67 -32 438 -3
c375 -2 437 -5 437 -17 0 -13 -58 -15 -419 -15 -389 0 -423 1 -482 20 -136 42
-251 148 -305 280 -24 57 -28 83 -32 208 -4 128 -3 142 12 142 15 0 17 -14 16
-122z m-4471 -137 c82 -26 138 -60 194 -120 43 -46 86 -119 87 -146 0 -8 -39
-11 -72 -6 -5 0 -11 1 -15 0 -3 0 -10 6 -14 13 -6 11 -33 15 -101 16 -51 2
-96 6 -100 10 -3 4 -15 29 -26 56 -17 43 -23 50 -51 54 -18 2 -31 -1 -31 -8 0
-7 -5 -8 -12 -3 -7 4 -66 9 -130 10 l-118 1 0 -59 c0 -52 -2 -59 -20 -59 -17
0 -20 7 -20 43 0 70 3 68 -198 72 l-181 3 -6 -63 c-6 -48 -10 -62 -21 -58 -10
4 -14 -4 -15 -28 -1 -53 -7 -22 -14 74 -5 58 -11 87 -19 87 -7 0 -30 15 -52
33 -39 33 -40 33 -129 31 -49 -2 -102 -3 -117 -3 -28 -1 -28 -1 -28 -71 0 -40
-4 -70 -10 -70 -6 0 -10 31 -10 73 l0 73 -146 -1 -147 -2 39 21 c81 42 119 44
786 45 596 1 640 0 697 -18z m-1569 -141 c0 -33 -4 -60 -10 -60 -11 0 -14 103
-3 113 12 12 13 8 13 -53z m11848 -116 c12 -8 22 -26 22 -40 0 -23 3 -24 55
-24 54 0 76 -16 35 -27 -18 -5 -20 -15 -22 -187 l-3 -181 -164 -3 c-112 -2
-168 1 -177 9 -11 9 -14 49 -14 185 0 148 -2 174 -15 174 -8 0 -15 7 -15 14 0
11 15 16 52 18 49 3 52 5 60 35 9 36 20 40 103 42 40 1 68 -4 83 -15z m-10213
-4 c3 -5 -1 -10 -10 -10 -9 0 -13 5 -10 10 3 6 8 10 10 10 2 0 7 -4 10 -10z
m105 6 c0 -3 -4 -8 -10 -11 -5 -3 -10 -1 -10 4 0 6 5 11 10 11 6 0 10 -2 10
-4z m8487 -78 c46 -46 83 -87 83 -93 0 -5 -32 -42 -72 -82 -68 -69 -72 -74
-72 -120 -1 -49 -34 -113 -59 -113 -6 0 -40 28 -74 62 l-63 62 -43 -42 c-73
-71 -96 -48 -25 25 l42 43 -63 64 c-42 42 -62 70 -58 80 11 28 58 50 108 50
47 0 51 2 121 73 40 40 77 73 83 73 5 0 47 -37 92 -82z m-907 39 c90 -46 146
-166 118 -253 -20 -61 -81 -80 -122 -38 -13 12 -20 12 -56 -7 -37 -19 -46 -20
-81 -10 -44 13 -79 58 -79 101 0 74 86 129 150 96 40 -20 40 -20 40 -1 0 20
16 19 24 -1 3 -9 6 -44 6 -79 0 -67 15 -95 49 -95 50 0 64 84 28 163 -76 167
-301 168 -378 2 -65 -141 54 -310 206 -293 23 3 57 13 76 22 45 23 62 4 19
-22 -157 -96 -375 55 -346 240 27 166 196 252 346 175z m1757 -39 c35 -34 63
-69 63 -78 0 -8 -66 -81 -147 -162 l-148 -148 -65 0 c-38 0 -71 5 -78 12 -7 7
-12 39 -12 72 l0 61 152 152 c84 84 157 153 163 153 5 0 38 -28 72 -62z
m-2959 -48 c19 -18 31 -60 18 -60 -3 0 -18 14 -35 31 -23 23 -36 29 -53 24
-39 -12 -48 -34 -48 -115 0 -46 5 -83 13 -92 36 -46 111 -14 105 46 -2 25 -8
32 -30 34 -45 5 -32 22 17 22 l45 0 0 -41 c0 -71 -31 -108 -93 -109 -27 0 -45
7 -62 25 -23 22 -25 32 -25 115 0 83 2 93 25 115 31 32 91 34 123 5z m122
-120 c0 -118 -2 -140 -15 -140 -13 0 -15 22 -15 140 0 118 2 140 15 140 13 0
15 -22 15 -140z m210 131 c0 -6 -24 -11 -52 -13 l-53 -3 0 -50 0 -50 43 -3
c23 -2 42 -7 42 -12 0 -5 -19 -10 -42 -12 l-43 -3 -3 -63 c-2 -44 -7 -62 -15
-59 -12 4 -23 236 -13 264 6 15 136 19 136 4z m-7475 -155 c164 -78 210 -288
92 -423 -73 -82 -189 -114 -298 -81 -51 15 -112 68 -147 126 -24 41 -27 57
-27 132 0 75 3 91 27 131 54 91 135 138 238 139 48 0 78 -6 115 -24z m55 -631
c0 -13 -27 -15 -182 -15 -101 0 -200 -5 -220 -10 -95 -27 -171 -126 -184 -241
-7 -65 -27 -76 -32 -19 -8 81 50 201 119 247 71 47 102 52 307 53 164 0 192
-2 192 -15z m210 -34 c95 -69 93 -194 -3 -265 -21 -15 -43 -21 -82 -21 -39 0
-61 6 -82 21 -105 78 -97 214 17 272 51 26 108 24 150 -7z m2690 -461 l0 -120
65 0 c63 0 65 -1 65 -25 0 -25 -1 -25 -90 -25 l-90 0 0 145 0 145 25 0 25 0 0
-120z m1440 0 l0 -120 65 0 c63 0 65 -1 65 -25 0 -25 -1 -25 -90 -25 l-90 0 0
145 0 145 25 0 25 0 0 -120z m820 68 c0 -49 1 -50 18 -35 10 10 35 17 55 17
82 0 117 -131 52 -196 -29 -28 -80 -32 -107 -7 -17 15 -18 15 -18 0 0 -11 -8
-17 -25 -17 l-25 0 0 145 0 145 25 0 c23 0 25 -3 25 -52z m680 7 c0 -18 5 -25
20 -25 13 0 20 -7 20 -20 0 -13 -7 -20 -20 -20 -18 0 -20 -7 -20 -66 0 -57 3
-67 20 -71 31 -8 26 -43 -6 -43 -55 0 -64 14 -64 100 0 73 -2 80 -20 80 -13 0
-20 7 -20 19 0 10 9 21 20 24 12 3 20 14 20 26 0 16 6 21 25 21 20 0 25 -5 25
-25z m-2612 -41 c20 -14 22 -23 22 -110 0 -94 0 -94 -25 -94 -14 0 -25 5 -25
12 0 9 -3 9 -12 0 -16 -16 -80 -15 -101 1 -9 6 -19 24 -22 38 -9 38 20 67 78
78 55 10 62 14 54 36 -7 17 -48 20 -64 4 -6 -6 -23 -9 -39 -7 l-29 3 27 28
c21 21 36 27 70 27 24 0 54 -7 66 -16z m132 -64 c0 -68 3 -81 19 -90 46 -24
71 16 71 111 0 56 1 59 25 59 l25 0 0 -110 0 -110 -25 0 c-16 0 -25 6 -25 16
0 14 -2 14 -22 0 -12 -9 -34 -16 -48 -16 -14 0 -36 7 -48 16 -20 14 -22 23
-22 110 0 94 0 94 25 94 25 0 25 -1 25 -80z m240 63 c1 -17 1 -17 11 0 15 25
69 23 69 -3 0 -13 -7 -20 -20 -20 -41 0 -60 -34 -60 -110 0 -68 -1 -70 -25
-70 l-25 0 0 110 0 110 25 0 c17 0 25 -6 25 -17z m252 6 c20 -11 48 -65 48
-94 0 -12 -14 -15 -75 -15 -66 0 -75 -2 -75 -18 0 -10 5 -23 12 -30 16 -16 63
-15 77 2 12 14 51 10 51 -5 0 -5 -9 -18 -20 -29 -25 -25 -105 -27 -137 -5 -49
34 -53 136 -8 181 26 26 90 33 127 13z m138 -6 c0 -15 1 -15 18 0 10 10 34 17
52 17 59 0 70 -20 70 -127 0 -93 0 -93 -25 -93 -25 0 -25 1 -25 78 0 80 -9
102 -41 102 -32 0 -49 -40 -49 -112 0 -66 -1 -68 -25 -68 l-25 0 0 110 0 110
25 0 c17 0 25 -6 25 -17z m678 1 c20 -14 22 -23 22 -110 0 -94 0 -94 -25 -94
-14 0 -25 5 -25 12 0 9 -3 9 -12 0 -20 -20 -85 -15 -108 8 -43 43 -12 95 63
109 55 10 62 14 54 36 -7 17 -48 20 -64 4 -6 -6 -23 -9 -39 -7 l-29 3 27 28
c21 21 36 27 70 27 24 0 54 -7 66 -16z m132 4 c0 -9 3 -9 12 0 17 17 74 15 92
-4 15 -14 17 -14 32 0 16 17 70 21 91 8 21 -13 33 -62 33 -138 l0 -74 -30 0
-30 0 0 84 c0 77 -2 85 -20 91 -38 12 -50 -11 -50 -96 l0 -79 -30 0 -30 0 0
85 c0 70 -3 87 -16 92 -36 14 -49 -10 -52 -96 -3 -79 -4 -81 -27 -81 l-25 0 0
110 0 110 25 0 c14 0 25 -5 25 -12z m712 1 c20 -11 48 -65 48 -94 0 -12 -14
-15 -75 -15 -66 0 -75 -2 -75 -18 0 -10 5 -23 12 -30 16 -16 63 -15 77 2 12
14 51 10 51 -5 0 -5 -9 -18 -20 -29 -30 -30 -113 -28 -145 4 -45 45 -45 127 0
172 26 26 90 33 127 13z m138 -6 c1 -17 1 -17 11 0 15 25 69 23 69 -3 0 -12
-7 -20 -18 -20 -10 0 -28 -7 -40 -16 -19 -13 -22 -24 -22 -90 0 -72 -1 -74
-25 -74 l-25 0 0 110 0 110 25 0 c17 0 25 -6 25 -17z m-6815 -133 c3 -5 -1
-10 -9 -10 -8 0 -18 5 -21 10 -3 6 1 10 9 10 8 0 18 -4 21 -10z m2815 -145 l0
-145 75 0 c73 0 75 -1 75 -25 l0 -25 -105 0 -105 0 0 170 0 170 30 0 30 0 0
-145z m270 0 l0 -145 75 0 c73 0 75 -1 75 -25 l0 -25 -105 0 -105 0 0 170 0
170 30 0 30 0 0 -145z m-3060 84 c0 -19 122 -137 168 -162 102 -56 119 -57
704 -57 372 0 538 -3 538 -11 0 -5 5 -7 12 -3 7 4 8 3 4 -4 -5 -9 -148 -12
-539 -12 -581 0 -620 3 -720 57 -57 30 -162 130 -190 180 -17 30 -17 31 3 26
11 -3 20 -9 20 -14z m4020 -359 l0 -60 75 0 75 0 0 61 c0 44 3 60 13 57 8 -3
13 -42 15 -136 2 -113 0 -132 -13 -132 -12 0 -15 13 -15 60 l0 60 -75 0 -75 0
0 -60 c0 -47 -3 -60 -15 -60 -13 0 -15 22 -15 135 0 113 2 135 15 135 12 0 15
-13 15 -60z m2390 -35 c0 -75 -3 -95 -14 -95 -11 0 -16 22 -21 84 -7 87 -4
106 21 106 11 0 14 -19 14 -95z m200 35 l0 -60 70 0 70 0 0 60 c0 47 3 60 15
60 13 0 15 -22 15 -135 0 -113 -2 -135 -15 -135 -12 0 -15 13 -15 60 l0 60
-70 0 -70 0 0 -60 c0 -47 -3 -60 -15 -60 -13 0 -15 22 -15 135 0 113 2 135 15
135 12 0 15 -13 15 -60z m876 49 c7 -12 -15 -31 -28 -23 -4 3 -8 12 -8 20 0
17 26 19 36 3z m380 0 c7 -12 -15 -31 -28 -23 -4 3 -8 12 -8 20 0 17 26 19 36
3z m764 -4 c0 -8 -9 -15 -20 -15 -20 0 -26 11 -13 23 12 13 33 7 33 -8z m608
-13 c22 -28 15 -80 -13 -98 -14 -9 -28 -27 -31 -40 -3 -13 -12 -24 -20 -24
-24 0 -15 28 21 69 40 44 44 64 14 84 -25 18 -60 10 -66 -15 -6 -21 -33 -25
-33 -5 0 15 27 41 50 50 23 8 63 -3 78 -21z m-1278 -17 c0 -18 5 -25 20 -25
11 0 20 -4 20 -9 0 -5 -9 -11 -20 -14 -17 -4 -20 -14 -20 -72 0 -58 3 -68 19
-72 30 -8 35 -33 8 -33 -38 0 -47 19 -47 97 0 56 -4 75 -15 79 -8 4 -15 10
-15 15 0 5 7 9 15 9 9 0 15 9 15 25 0 14 5 25 10 25 6 0 10 -11 10 -25z
m-3565 -50 c16 -15 25 -36 25 -55 l0 -30 -70 0 c-72 0 -79 -5 -60 -40 15 -27
56 -33 90 -13 37 21 53 8 21 -18 -23 -19 -74 -25 -106 -13 -8 4 -22 19 -30 35
-53 102 53 212 130 134z m113 -53 c13 -39 27 -70 31 -68 4 3 18 37 32 76 16
49 29 70 40 70 14 0 10 -18 -25 -112 -58 -154 -60 -158 -99 -158 -30 1 -31 1
-13 15 11 8 23 15 28 15 4 0 10 10 13 23 5 19 -15 87 -61 201 -5 14 -3 17 11
15 13 -3 26 -26 43 -77z m399 56 c12 -13 24 -38 28 -55 l7 -33 -76 0 c-83 0
-90 -7 -51 -45 29 -30 38 -30 76 -8 36 21 52 8 20 -18 -35 -28 -92 -25 -122 7
-19 20 -24 36 -24 76 0 42 4 53 28 74 37 31 86 32 114 2z m113 -53 c13 -41 26
-75 30 -75 3 0 16 32 29 71 19 60 42 92 55 78 2 -2 -12 -48 -32 -101 -38 -107
-60 -125 -79 -65 -6 17 -22 62 -36 100 -24 61 -25 67 -8 67 13 0 23 -19 41
-75z m275 69 c19 -8 45 -55 45 -84 0 -18 -6 -20 -74 -20 -70 0 -74 -1 -69 -21
3 -11 17 -28 30 -36 23 -15 27 -15 59 2 40 21 55 14 29 -15 -24 -26 -95 -28
-118 -2 -43 47 -40 134 6 167 22 16 63 20 92 9z m118 -6 c4 -10 7 -10 18 0 18
17 49 15 49 -3 0 -8 -8 -15 -18 -15 -33 0 -42 -22 -42 -97 0 -58 -3 -73 -15
-73 -12 0 -15 18 -15 100 0 89 9 124 23 88z m157 -63 c13 -41 26 -75 29 -75 4
0 17 32 31 71 21 62 41 91 55 77 6 -5 -82 -238 -97 -255 -11 -14 -58 -18 -58
-5 0 4 10 12 23 17 33 15 32 50 -7 153 -30 80 -32 92 -17 92 13 0 24 -20 41
-75z m295 50 c20 -19 25 -34 25 -75 0 -65 -30 -100 -85 -100 -55 0 -85 35 -85
100 0 65 30 100 85 100 25 0 44 -8 60 -25z m105 8 c0 -15 1 -15 18 0 25 23 68
21 92 -3 17 -17 20 -33 20 -100 0 -64 -3 -80 -15 -80 -12 0 -15 15 -15 74 0
65 -3 77 -21 90 -12 8 -29 12 -38 9 -31 -11 -41 -36 -41 -105 0 -54 -3 -68
-15 -68 -12 0 -15 18 -15 100 0 82 3 100 15 100 8 0 15 -7 15 -17z m319 0 c12
-10 24 -35 28 -55 l6 -38 -72 0 c-64 0 -71 -2 -71 -20 0 -11 12 -27 26 -37 24
-16 28 -16 59 1 45 24 66 17 37 -12 -31 -31 -95 -30 -127 3 -35 34 -35 111 0
149 29 31 82 35 114 9z m696 -8 c20 -19 25 -34 25 -75 0 -66 -30 -100 -88
-100 -64 0 -105 67 -82 135 22 67 98 88 145 40z m100 -32 c28 -102 29 -103 51
-22 26 96 46 103 68 22 29 -103 30 -103 52 -22 14 51 26 75 37 77 10 2 15 -2
12 -10 -2 -7 -16 -52 -30 -100 -17 -57 -31 -88 -40 -88 -9 0 -23 28 -37 76
-24 84 -25 84 -53 -18 -27 -96 -38 -83 -101 125 -3 11 0 17 10 17 10 0 21 -19
31 -57z m395 -43 c0 -82 -3 -100 -15 -100 -12 0 -15 18 -15 100 0 82 3 100 15
100 12 0 15 -18 15 -100z m182 78 c27 -27 6 -39 -22 -13 -27 25 -72 13 -68
-18 2 -16 14 -26 42 -35 50 -16 66 -29 66 -55 0 -55 -88 -79 -132 -35 -26 26
-7 39 21 14 32 -29 86 -15 79 20 -2 12 -18 24 -43 32 -51 17 -65 29 -65 58 0
50 82 72 122 32z m198 -78 c0 -82 -3 -100 -15 -100 -12 0 -15 18 -15 100 0 82
3 100 15 100 12 0 15 -18 15 -100z m410 85 c7 -8 16 -15 21 -15 5 0 9 7 9 15
0 8 5 15 10 15 6 0 10 -45 10 -114 0 -139 -10 -158 -83 -160 -32 -1 -52 4 -64
16 -21 22 -9 36 17 20 26 -16 75 -15 88 1 5 6 10 51 11 100 0 83 -1 88 -26
104 -22 15 -28 15 -51 2 -31 -17 -44 -60 -30 -99 11 -33 37 -45 75 -35 18 4
24 2 21 -7 -3 -7 -23 -14 -45 -16 -34 -3 -44 1 -62 24 -38 48 -21 139 29 157
28 10 58 7 70 -8z m237 0 c12 -8 27 -31 33 -50 14 -43 -1 -97 -33 -120 -48
-34 -119 -7 -133 50 -23 91 64 169 133 120z m113 -85 c0 -60 -4 -100 -10 -100
-6 0 -10 40 -10 100 0 60 4 100 10 100 6 0 10 -40 10 -100z m90 85 c0 -12 4
-12 28 2 36 21 75 11 90 -22 7 -14 12 -57 12 -95 0 -56 -3 -70 -15 -70 -12 0
-15 16 -15 80 0 76 -1 81 -25 92 -19 9 -29 8 -50 -6 -23 -15 -25 -22 -25 -91
0 -43 -4 -75 -10 -75 -6 0 -10 40 -10 100 0 60 4 100 10 100 6 0 10 -7 10 -15z
m300 0 c7 -8 16 -15 21 -15 5 0 9 7 9 15 0 8 5 15 10 15 6 0 10 -44 10 -113 0
-126 -9 -150 -60 -161 -34 -6 -100 16 -100 33 0 14 27 14 35 1 9 -14 68 -13
83 2 7 7 12 26 12 42 0 23 -3 27 -12 18 -7 -7 -29 -12 -49 -12 -65 0 -99 74
-68 144 19 41 85 60 109 31z m-5555 -96 c51 -14 80 -41 101 -94 40 -107 -54
-213 -170 -191 -150 28 -155 241 -7 286 35 11 31 11 76 -1z m2955 -70 c0 -25
-33 -22 -38 4 -2 12 3 17 17 17 15 0 21 -6 21 -21z m2783 15 c9 -9 -4 -34 -18
-34 -14 0 -27 25 -18 34 4 3 12 6 18 6 6 0 14 -3 18 -6z m3877 -124 c0 -5 -4
-10 -10 -10 -5 0 -10 5 -10 10 0 6 5 10 10 10 6 0 10 -4 10 -10z m-455 -383
c22 -15 51 -43 65 -64 21 -31 25 -48 25 -112 0 -66 -4 -81 -27 -114 -41 -60
-90 -89 -162 -94 -53 -4 -68 -1 -116 24 -44 23 -60 39 -82 82 -59 113 -22 228
95 294 49 28 149 20 202 -16z m-7621 7 c64 -22 147 -100 177 -166 31 -72 31
-172 -1 -246 -46 -107 -162 -182 -281 -182 -115 0 -233 77 -280 182 -69 159
14 352 177 412 53 20 150 19 208 0z m5473 -16 c24 -6 48 -17 54 -24 9 -12 4
-14 -30 -14 -42 0 -42 -1 -39 -32 3 -30 6 -33 41 -36 35 -3 37 -5 37 -38 0
-32 2 -34 34 -34 33 0 35 2 38 38 l4 37 23 -49 c49 -104 21 -239 -66 -316
-112 -99 -282 -94 -384 11 -126 129 -100 337 52 431 73 46 134 53 236 26z
m-1828 -115 c44 -65 82 -122 84 -127 2 -5 8 -7 13 -3 7 4 5 32 -5 82 -14 67
-14 77 -1 85 30 20 45 4 78 -85 19 -50 43 -112 53 -140 69 -183 -152 -348
-308 -229 -32 24 -213 273 -213 293 0 15 38 33 53 24 6 -4 4 5 -5 20 -29 44
-18 87 22 87 13 0 15 7 12 29 -3 22 1 32 18 41 18 10 26 8 45 -10 l24 -22 -6
21 c-6 25 12 51 37 51 11 0 47 -44 99 -117z m3446 68 c3 -5 16 -126 30 -268
44 -447 48 -485 55 -471 4 7 20 102 35 210 16 109 32 203 36 209 18 30 37 -6
68 -128 18 -70 37 -134 41 -142 4 -8 19 16 39 67 18 45 38 83 44 85 7 3 32
-15 57 -39 l46 -44 39 33 c36 29 45 32 109 32 59 0 71 -3 74 -17 3 -16 -5 -18
-63 -18 -61 0 -70 -3 -109 -35 -24 -19 -47 -35 -52 -35 -4 0 -25 17 -46 37
-23 23 -41 33 -47 28 -4 -6 -23 -47 -42 -92 -24 -60 -38 -83 -50 -83 -20 0
-22 6 -59 163 -13 53 -26 97 -30 97 -3 0 -20 -102 -38 -227 -19 -126 -36 -236
-38 -245 -6 -21 -32 -24 -39 -5 -2 6 -18 156 -35 332 -33 350 -40 418 -46 413
-2 -3 -18 -98 -35 -214 -17 -115 -36 -215 -42 -222 -15 -19 -29 -1 -67 85 -18
43 -35 80 -37 83 -2 2 -22 -17 -44 -43 -22 -26 -49 -47 -59 -47 -16 0 -15 4 8
32 73 86 95 107 104 102 6 -4 25 -39 43 -78 39 -85 33 -102 79 206 19 125 37
232 41 238 8 12 22 13 30 1z m-6505 -101 c24 -24 26 -67 4 -92 -16 -16 -15
-18 0 -24 10 -4 22 -18 27 -31 21 -56 -50 -114 -121 -98 -28 6 -70 46 -70 66
0 15 47 10 60 -7 8 -9 25 -14 44 -12 24 2 32 8 34 27 4 26 -12 41 -45 41 -16
0 -23 6 -23 20 0 15 7 20 25 20 29 0 47 28 34 53 -13 23 -52 22 -74 -3 -23
-25 -45 -26 -45 -1 0 52 109 82 150 41z m1835 -5 c14 -13 25 -35 25 -48 0 -25
-41 -88 -80 -122 l-22 -20 53 -5 c41 -4 55 -9 57 -22 3 -16 -6 -18 -87 -18
-113 0 -117 10 -31 95 51 50 60 65 58 90 -2 24 -8 31 -30 33 -19 2 -31 -3 -40
-17 -11 -18 -58 -31 -58 -16 0 14 31 64 42 68 36 15 90 6 113 -18z m1815 -105
c0 -123 -1 -130 -20 -130 -19 0 -20 7 -20 105 0 58 -3 105 -7 105 -5 0 -17 -7
-27 -15 -26 -20 -36 -19 -36 3 0 19 63 61 93 62 15 0 17 -13 17 -130z m-3325
-370 c-12 -19 -119 -83 -173 -102 -53 -19 -87 -22 -477 -29 -262 -5 -444 -4
-485 2 -67 10 -167 51 -209 86 l-23 19 25 -1 c14 0 29 -4 33 -8 12 -12 91 -45
138 -58 28 -8 171 -11 456 -10 478 2 510 6 629 74 69 40 100 49 86 27z m7355
-420 c0 -5 -7 -10 -15 -10 -8 0 -15 5 -15 10 0 6 7 10 15 10 8 0 15 -4 15 -10z
m-157 -307 c-5 -12 -3 -14 8 -8 8 4 1 -6 -16 -24 -43 -46 -170 -107 -252 -120
-89 -15 -295 -11 -301 7 -3 9 27 12 125 12 73 0 157 7 196 15 74 15 179 69
218 110 28 29 30 30 22 8z m-9855 -188 c81 -19 167 -62 196 -96 21 -24 23 -41
29 -170 4 -79 7 -192 7 -251 l0 -108 124 0 c68 0 132 -3 141 -6 38 -15 45 -55
45 -264 l0 -202 -29 -29 -29 -29 -311 0 -310 0 -28 24 c-25 21 -28 32 -31 99
l-4 74 -87 6 c-195 12 -344 82 -366 170 -3 12 -5 162 -3 334 3 298 4 313 24
340 43 58 147 105 276 123 85 12 278 4 356 -15z m3213 -182 c60 -27 104 -66
136 -121 22 -36 28 -61 31 -128 4 -75 2 -89 -22 -138 -107 -219 -414 -220
-521 -1 -49 100 -33 227 39 313 32 37 102 81 149 93 48 12 139 3 188 -18z
m5452 -115 c121 -67 221 -128 225 -136 3 -8 1 -21 -4 -29 -9 -15 -368 -222
-431 -249 -28 -12 -34 -12 -47 2 -9 8 -16 19 -16 23 0 4 19 58 42 121 l41 115
-42 123 c-35 99 -41 125 -31 137 7 8 20 15 28 15 9 0 115 -55 235 -122z
m-7175 -21 l3 -106 107 -3 c87 -2 107 -6 107 -18 0 -12 -20 -16 -107 -18
l-107 -3 -3 -107 c-2 -87 -6 -107 -18 -107 -12 0 -16 20 -18 107 l-3 107 -107
3 c-87 2 -107 6 -107 18 0 12 20 16 108 18 l107 3 0 103 c0 56 3 106 7 110 20
20 28 -9 31 -107z m2421 -14 c12 -10 24 -34 27 -54 5 -28 1 -41 -21 -67 l-27
-32 31 -55 c27 -47 29 -55 14 -55 -12 0 -29 20 -47 55 -27 52 -30 55 -67 55
l-39 0 0 -55 c0 -42 -3 -55 -15 -55 -13 0 -15 22 -15 140 l0 140 69 0 c51 0
74 -5 90 -17z m581 -123 c0 -118 -2 -140 -15 -140 -13 0 -15 22 -15 140 0 118
2 140 15 140 13 0 15 -22 15 -140z m-352 47 c12 -13 25 -37 28 -55 l7 -32 -82
0 c-91 0 -101 -10 -56 -55 27 -28 66 -32 85 -10 14 17 40 20 40 6 0 -19 -45
-41 -83 -41 -59 0 -87 34 -87 105 0 46 4 60 25 80 33 34 93 34 123 2z m112 6
c0 -15 1 -15 18 0 29 27 87 22 111 -8 40 -52 35 -137 -12 -170 -28 -20 -76
-19 -99 2 -17 15 -18 14 -18 -40 0 -44 -3 -57 -15 -57 -13 0 -15 23 -15 145 0
122 2 145 15 145 8 0 15 -7 15 -17z m349 -65 c14 -42 29 -79 32 -82 3 -4 19
32 35 79 17 50 34 85 42 85 16 0 14 -5 -39 -149 -22 -58 -47 -113 -56 -123
-20 -22 -53 -24 -53 -3 0 8 8 15 18 15 11 0 24 11 30 24 11 24 3 54 -57 209
-10 25 -9 28 6 25 11 -2 25 -30 42 -80z m201 -109 c0 -14 -5 -19 -17 -17 -26
5 -29 38 -4 38 15 0 21 -6 21 -21z m110 0 c0 -14 -5 -19 -17 -17 -26 5 -29 38
-4 38 15 0 21 -6 21 -21z m-6019 -489 c6 -237 16 -276 98 -377 86 -106 184
-164 316 -184 35 -6 325 -9 690 -7 627 3 630 3 690 26 33 12 77 34 97 47 41
28 59 32 56 13 -4 -19 -74 -65 -138 -91 -55 -22 -58 -22 -715 -25 -716 -3
-733 -2 -845 50 -76 36 -185 139 -220 208 -56 110 -62 143 -68 353 -4 190 -4
199 14 195 18 -3 19 -18 25 -208z"/>
<path d="M9697 8832 c-15 -17 -17 -55 -17 -341 0 -203 4 -329 10 -342 10 -18
27 -19 503 -19 370 0 496 3 505 12 9 9 12 99 12 344 0 289 -2 335 -16 348 -14
14 -73 16 -498 16 -455 0 -484 -1 -499 -18z m610 -131 c106 -53 155 -174 122
-296 -15 -57 -100 -137 -162 -154 -221 -62 -399 184 -270 372 69 100 202 134
310 78z"/>
<path d="M10136 8683 c-46 -12 -96 -57 -122 -109 -69 -141 27 -294 184 -294
67 0 113 21 156 72 115 133 18 342 -156 337 -24 -1 -52 -4 -62 -6z m97 -138
c42 -25 77 -49 77 -54 0 -14 -162 -102 -177 -97 -9 4 -13 31 -13 101 0 115 1
115 113 50z"/>
<path d="M10160 8490 c0 -56 1 -56 68 -12 l23 15 -42 23 c-22 13 -43 24 -45
24 -2 0 -4 -23 -4 -50z"/>
<path d="M14811 7536 c-22 -26 -2 -36 75 -36 72 0 75 1 72 23 -3 20 -9 22 -69
25 -49 2 -69 -1 -78 -12z"/>
<path d="M14730 7300 l0 -170 155 0 155 0 0 170 0 170 -155 0 -155 0 0 -170z
m110 -1 c0 -68 -3 -90 -12 -87 -9 3 -14 30 -16 78 -3 77 1 100 18 100 6 0 10
-35 10 -91z m110 1 c0 -53 -4 -90 -10 -90 -6 0 -10 37 -10 90 0 53 4 90 10 90
6 0 10 -37 10 -90z"/>
<path d="M13180 7465 c-71 -71 -76 -74 -111 -69 -24 4 -47 0 -69 -11 l-33 -17
129 -129 c71 -71 130 -129 131 -129 1 0 10 14 19 32 11 20 14 43 10 67 -5 34
-2 40 69 111 l75 75 -73 73 -72 72 -75 -75z"/>
<path d="M12275 7375 c-16 -15 -25 -36 -25 -55 0 -39 39 -80 75 -80 32 0 85
50 85 80 0 30 -53 80 -85 80 -14 0 -37 -11 -50 -25z"/>
<path d="M14097 7492 l-27 -28 55 -54 55 -54 27 27 28 27 -56 55 -55 56 -27
-29z"/>
<path d="M13942 7337 l-102 -102 0 -53 0 -52 58 0 57 0 103 103 102 103 -53
52 c-29 28 -55 52 -57 52 -3 0 -51 -46 -108 -103z"/>
<path d="M3939 7280 c-53 -10 -126 -56 -153 -98 -124 -190 50 -424 268 -360
64 19 140 100 156 167 41 170 -100 322 -271 291z"/>
<path d="M4203 6596 c-63 -53 -68 -130 -12 -186 60 -60 176 -32 200 49 15 49
7 82 -29 122 -23 25 -38 33 -78 36 -43 4 -54 2 -81 -21z"/>
<path d="M9326 6158 c-44 -63 17 -154 68 -102 18 18 21 76 6 105 -14 26 -55
24 -74 -3z"/>
<path d="M7293 6090 c-13 -6 -23 -18 -23 -30 0 -15 7 -20 28 -20 32 0 52 16
52 42 0 20 -21 22 -57 8z"/>
<path d="M7912 6168 c-26 -26 -13 -38 39 -38 51 0 51 0 37 23 -17 25 -57 34
-76 15z"/>
<path d="M8733 6090 c-13 -6 -23 -18 -23 -30 0 -15 7 -20 28 -20 32 0 52 16
52 42 0 20 -21 22 -57 8z"/>
<path d="M9572 6168 c-25 -25 -13 -38 33 -38 30 0 45 4 45 13 0 19 -21 37 -45
37 -12 0 -26 -5 -33 -12z"/>
<path d="M7306 5594 c-27 -26 -18 -34 39 -34 38 0 55 4 55 13 0 36 -65 51 -94
21z"/>
<path d="M7823 5598 c-28 -36 -25 -38 38 -38 l61 0 -14 23 c-17 25 -69 35 -85
15z"/>
<path d="M8239 5606 c-13 -6 -25 -19 -27 -29 -3 -14 5 -17 52 -17 58 0 65 5
44 32 -19 23 -42 28 -69 14z"/>
<path d="M8794 5609 c-49 -18 -50 -112 -2 -138 23 -13 29 -13 52 2 21 14 26
25 26 60 0 63 -31 93 -76 76z"/>
<path d="M9219 5606 c-13 -6 -25 -19 -27 -29 -3 -14 5 -17 52 -17 58 0 65 5
44 32 -19 23 -42 28 -69 14z"/>
<path d="M9912 5609 c-46 -17 -52 -104 -9 -134 29 -20 43 -19 67 5 13 13 20
33 20 58 0 59 -32 88 -78 71z"/>
<path d="M11430 5600 c-43 -43 -15 -140 40 -140 57 0 82 96 37 138 -29 27 -51
28 -77 2z"/>
<path d="M11957 5609 c-28 -16 -39 -57 -27 -95 19 -56 89 -59 108 -5 13 38 4
78 -21 96 -25 18 -36 18 -60 4z"/>
<path d="M15458 4958 c-46 -12 -103 -73 -119 -127 -24 -81 38 -184 127 -211
118 -35 246 90 214 210 -26 97 -125 155 -222 128z m152 -91 c0 -15 -106 -160
-120 -165 -13 -5 -90 59 -90 75 0 19 21 16 50 -7 14 -11 28 -20 32 -20 3 0 28
29 54 65 45 61 74 82 74 52z"/>
<path d="M7772 4808 c-17 -17 -15 -83 4 -99 37 -31 80 41 50 85 -18 28 -35 33
-54 14z"/>
<path d="M7970 4801 c-15 -30 -12 -66 8 -84 23 -21 27 -21 46 -1 19 18 21 75
4 92 -18 18 -46 14 -58 -7z"/>
<path d="M7721 4633 c-19 -34 27 -115 84 -146 65 -35 173 -21 227 29 37 35 61
88 52 116 -5 18 -11 19 -67 11 -75 -10 -164 -10 -234 -1 -43 6 -54 4 -62 -9z"/>
<path d="M13457 4812 c-33 -36 -17 -102 25 -102 37 0 51 75 20 103 -23 21 -25
21 -45 -1z"/>
<path d="M13262 4808 c-26 -26 -7 -98 26 -98 27 0 42 20 42 55 0 34 -15 55
-40 55 -9 0 -21 -5 -28 -12z"/>
<path d="M13220 4655 c-15 -18 -6 -58 21 -96 25 -36 95 -69 145 -69 86 0 179
78 172 145 -3 28 -6 30 -38 28 -105 -7 -210 -7 -246 -1 -32 6 -45 4 -54 -7z
m295 -35 c-26 -42 -161 -58 -222 -26 -18 9 -33 19 -33 23 0 3 28 4 63 1 50 -4
135 1 190 11 5 0 5 -4 2 -9z"/>
<path d="M5915 3400 c-156 -24 -275 -89 -275 -151 0 -92 244 -172 471 -155
192 14 339 83 339 157 0 104 -291 186 -535 149z"/>
<path d="M5640 3097 l0 -75 40 -35 c52 -44 144 -74 271 -89 178 -20 377 19
459 89 l40 35 0 75 c0 72 -1 75 -17 61 -28 -25 -94 -55 -158 -73 -94 -26 -303
-31 -405 -11 -87 18 -180 54 -212 83 -17 15 -18 12 -18 -60z"/>
<path d="M5640 2902 c0 -60 4 -75 25 -100 43 -51 168 -93 321 -107 l72 -6 7
28 c3 15 16 38 27 51 21 21 28 22 190 22 l168 0 0 92 c0 86 -1 90 -17 76 -29
-25 -95 -55 -164 -74 -91 -26 -357 -26 -448 0 -69 19 -135 49 -163 74 -17 14
-18 11 -18 -56z"/>
<path d="M5640 2702 c0 -60 4 -75 25 -100 44 -52 173 -94 323 -105 l72 -6 0
83 0 83 -88 6 c-133 8 -260 46 -314 95 -17 14 -18 11 -18 -56z"/>
<path d="M6142 2751 c2 -5 67 -63 146 -130 l144 -121 27 23 c163 137 271 230
271 233 0 2 -133 4 -296 4 -169 0 -294 -4 -292 -9z"/>
<path d="M6100 2528 c0 -145 3 -207 12 -216 19 -19 621 -17 637 2 8 9 11 75 9
214 l-3 200 -158 -135 c-87 -74 -164 -133 -170 -130 -7 2 -75 58 -153 123 -77
66 -148 125 -157 133 -16 13 -17 0 -17 -191z"/>
<path d="M9274 3204 c-56 -20 -118 -75 -143 -127 -25 -51 -28 -150 -7 -201 36
-87 138 -156 231 -156 93 0 195 69 231 156 8 19 14 59 14 91 0 112 -70 207
-174 238 -61 18 -98 18 -152 -1z m0 -159 c27 -28 -10 -69 -40 -44 -17 14 -18
31 -2 47 16 16 23 15 42 -3z m210 -8 c13 -21 -13 -51 -36 -42 -24 10 -29 32
-11 50 18 18 32 16 47 -8z m-214 -142 c51 -49 124 -49 170 0 13 14 29 25 37
25 24 0 14 -38 -17 -64 -64 -53 -146 -53 -210 0 -30 26 -41 64 -18 64 7 0 24
-11 38 -25z"/>
<path d="M14727 3095 l37 -104 81 -3 c63 -2 80 -6 80 -18 0 -12 -17 -16 -80
-18 l-81 -3 -34 -97 c-18 -53 -35 -103 -38 -109 -2 -7 91 40 207 105 116 64
211 119 210 122 0 6 -402 230 -412 230 -4 0 10 -47 30 -105z"/>
<path d="M10040 3020 l0 -60 49 0 c57 0 81 18 81 60 0 38 -32 60 -87 60 l-43
0 0 -60z"/>
<path d="M10291 2984 c-12 -15 -21 -31 -21 -35 0 -5 29 -9 65 -9 72 0 83 12
45 50 -28 28 -64 25 -89 -6z"/>
<path d="M10531 2984 c-12 -15 -21 -41 -21 -59 0 -41 34 -85 65 -85 31 0 65
44 65 85 0 41 -34 85 -65 85 -14 0 -32 -11 -44 -26z"/>
</g>
</svg>
