<?xml version="1.0" standalone="no"?>
<!DOCTYPE svg PUBLIC "-//W3C//DTD SVG 20010904//EN"
 "http://www.w3.org/TR/2001/REC-SVG-20010904/DTD/svg10.dtd">
<svg version="1.0" xmlns="http://www.w3.org/2000/svg"
 width="1728.000000pt" height="1062.000000pt" viewBox="0 0 1728.000000 1062.000000"
 preserveAspectRatio="xMidYMid meet">

<g transform="translate(0.000000,1062.000000) scale(0.100000,-0.100000)"
fill="#000000" stroke="none">
<path d="M0 5310 l0 -5310 8640 0 8640 0 0 5310 0 5310 -8640 0 -8640 0 0
-5310z m9850 3506 c0 -7 -3 -28 -6 -45 l-6 -31 -2017 -2 -2016 -3 -65 -28
c-83 -35 -168 -101 -227 -177 -48 -62 -50 -63 -97 -27 -19 14 -18 16 18 65 88
120 233 218 366 246 97 21 4050 23 4050 2z m-5302 -100 c35 -7 65 -16 68 -19
13 -12 -154 -30 -306 -32 -201 -3 -295 -25 -466 -110 -275 -137 -476 -385
-556 -684 -29 -110 -36 -336 -14 -454 50 -266 194 -497 407 -657 42 -31 93
-76 114 -101 22 -24 48 -54 59 -67 l21 -23 -30 11 c-55 21 -183 103 -256 164
-177 148 -305 352 -371 593 -18 67 -22 105 -22 268 -1 166 2 201 22 275 118
449 482 779 937 850 79 12 314 4 393 -14z m412 -151 c240 -50 428 -152 597
-323 246 -249 367 -627 308 -965 -90 -518 -486 -890 -1006 -946 -159 -18 -371
11 -518 69 -152 59 -273 140 -391 260 -205 206 -315 457 -327 740 -17 422 178
794 534 1016 117 73 280 133 423 157 67 11 314 6 380 -8z m5810 -1573 c0 -583
-2 -675 -16 -723 -29 -97 -74 -170 -164 -259 -95 -95 -190 -150 -294 -169 -42
-8 -587 -11 -1817 -11 l-1757 0 -463 -469 c-401 -405 -472 -472 -523 -496
-156 -76 -312 -22 -384 133 l-27 57 -3 646 -3 647 36 21 c20 11 38 21 41 21 2
0 4 -283 4 -628 0 -671 2 -694 50 -765 56 -82 150 -104 245 -57 39 19 155 130
519 497 l469 473 1782 0 c1750 0 1784 0 1847 20 167 51 320 210 363 375 13 50
15 157 15 707 l0 648 40 0 40 0 0 -668z m-940 573 c10 -12 10 -21 2 -40 l-12
-25 -1769 0 c-1595 0 -1771 2 -1785 16 -19 19 -20 36 -4 52 9 9 419 12 1784
12 1578 0 1773 -2 1784 -15z m-1176 -677 c8 -13 8 -23 0 -35 -11 -17 -79 -18
-1184 -21 -858 -1 -1176 1 -1186 9 -17 14 -18 41 -2 57 9 9 281 11 1186 10
1106 -3 1175 -4 1186 -20z m2293 -2136 c-1 -141 -2 -25 -2 258 0 283 1 399 2
258 2 -142 2 -374 0 -516z m1550 692 c-3 -3 -12 -4 -19 -1 -8 3 -5 6 6 6 11 1
17 -2 13 -5z m-1667 -189 l0 -45 -1758 -2 -1758 -3 -77 -38 c-136 -67 -245
-190 -293 -328 -18 -51 -19 -101 -19 -1034 0 -775 3 -990 13 -1030 39 -147
183 -303 343 -368 l54 -22 1800 -2 1800 -3 470 -475 c502 -507 511 -514 607
-515 61 0 90 12 129 52 70 73 64 -57 67 1491 l2 1398 43 -3 42 -3 0 -1380 c0
-1550 5 -1442 -74 -1543 -55 -69 -115 -97 -206 -97 -138 1 -131 -5 -656 525
l-466 470 -1769 0 c-1172 0 -1784 4 -1814 11 -66 15 -177 72 -243 126 -77 63
-152 165 -191 261 l-31 77 -3 995 c-2 681 1 1011 8 1046 43 206 239 408 450
465 61 17 175 18 1798 18 l1732 1 0 -45z m1040 -99 c0 -2 -7 -7 -16 -10 -8 -3
-12 -2 -9 4 6 10 25 14 25 6z m2107 -188 c-3 -8 -6 -5 -6 6 -1 11 2 17 5 13 3
-3 4 -12 1 -19z m-1129 -525 c-328 -2 -868 -2 -1200 0 -332 1 -63 2 597 2 660
0 931 -1 603 -2z m-2683 -397 c16 -12 18 -19 10 -43 l-10 -28 -1172 -3 c-1055
-2 -1173 -1 -1187 14 -20 20 -20 38 0 58 14 14 134 16 1178 16 981 0 1165 -2
1181 -14z m4050 -660 c342 -88 605 -347 706 -696 82 -281 20 -605 -162 -850
-358 -481 -1064 -534 -1489 -110 -104 105 -201 262 -244 395 -45 142 -57 327
-31 475 19 107 38 165 86 263 142 290 424 497 744 547 102 15 278 5 390 -24z
m-2846 -24 c7 -14 6 -25 -5 -40 l-15 -22 -1770 0 -1769 0 -12 25 c-8 19 -8 28
2 40 11 13 206 15 1786 15 1714 0 1774 -1 1783 -18z"/>
<path d="M4620 8510 c-241 -31 -443 -132 -621 -309 -108 -109 -150 -167 -213
-302 -73 -155 -91 -244 -91 -444 0 -186 11 -253 67 -394 96 -246 305 -462 555
-578 191 -88 436 -114 653 -68 366 77 664 342 784 698 46 135 60 240 53 396
-12 266 -109 489 -297 682 -149 152 -319 250 -522 299 -94 23 -271 33 -368 20z
m282 -379 c78 -30 159 -110 201 -198 29 -61 32 -77 32 -158 0 -80 -4 -97 -31
-155 -39 -83 -116 -163 -191 -198 -51 -23 -70 -27 -163 -27 -99 0 -109 2 -172
33 -230 113 -288 411 -119 604 48 54 94 85 166 110 68 24 199 19 277 -11z m83
-891 l0 -25 -270 -6 c-311 -6 -332 -11 -418 -89 -71 -65 -105 -134 -117 -240
-10 -91 -20 -111 -48 -94 -35 23 -24 151 23 251 29 63 103 145 163 180 83 49
108 52 397 50 l270 -2 0 -25z m222 -91 c138 -52 151 -254 21 -320 -55 -28
-140 -23 -186 10 -74 52 -95 177 -42 250 41 59 137 87 207 60z"/>
<path d="M4651 8084 c-91 -33 -149 -83 -194 -168 -18 -34 -22 -57 -22 -141 0
-85 3 -106 23 -143 35 -66 85 -115 149 -147 50 -26 69 -29 143 -29 69 0 94 5
135 24 241 117 249 458 13 579 -81 41 -177 51 -247 25z"/>
<path d="M13780 3329 c-337 -71 -610 -330 -702 -668 -31 -113 -31 -343 0 -461
57 -215 193 -407 376 -530 167 -111 308 -154 516 -154 160 -1 252 20 395 88
224 107 402 310 479 548 30 94 50 260 41 348 -21 219 -107 408 -256 565 -217
228 -540 328 -849 264z m788 -531 c7 -7 12 -18 12 -24 0 -11 -83 -112 -259
-313 -77 -89 -132 -152 -160 -187 -73 -88 -177 -197 -195 -204 -32 -11 -73 8
-112 54 l-35 41 -22 -30 c-38 -53 -75 -85 -97 -85 -27 0 -79 52 -228 225 -115
133 -132 167 -90 181 24 7 32 -1 205 -208 54 -64 103 -117 108 -117 9 -1 50
45 69 76 4 8 -24 47 -78 108 -47 52 -86 101 -86 109 0 9 9 20 21 26 26 15 24
17 182 -162 71 -82 135 -148 141 -147 6 0 75 75 153 167 79 92 153 178 166
192 12 14 78 89 145 168 68 78 129 142 136 142 6 0 17 -5 24 -12z m-255 -29
c12 -19 5 -30 -101 -147 -38 -43 -124 -139 -191 -215 -96 -108 -128 -137 -144
-135 -13 2 -23 11 -25 23 -3 20 38 71 241 300 180 203 195 214 220 174z"/>
</g>
</svg>
