<?xml version="1.0" standalone="no"?>
<!DOCTYPE svg PUBLIC "-//W3C//DTD SVG 20010904//EN"
 "http://www.w3.org/TR/2001/REC-SVG-20010904/DTD/svg10.dtd">
<svg version="1.0" xmlns="http://www.w3.org/2000/svg"
 width="1024.000000pt" height="624.000000pt" viewBox="0 0 1024.000000 624.000000"
 preserveAspectRatio="xMidYMid meet">

<g transform="translate(0.000000,624.000000) scale(0.100000,-0.100000)"
fill="#000000" stroke="none">
<path d="M7810 5356 c0 -2 24 -16 54 -30 67 -33 156 -126 196 -206 53 -105 74
-200 74 -340 0 -147 -15 -216 -75 -338 -49 -99 -118 -173 -203 -214 l-61 -30
76 5 c59 3 87 10 128 32 104 57 197 192 238 345 25 90 24 309 -1 400 -50 181
-161 318 -295 365 -38 13 -131 21 -131 11z"/>
<path d="M4710 2814 c-52 -8 -109 -21 -127 -29 -60 -27 -163 -204 -452 -780
-108 -215 -199 -392 -204 -395 -7 -5 -31 27 -381 515 -107 149 -203 281 -214
295 l-20 24 -38 -27 c-22 -15 -85 -62 -141 -105 l-102 -79 137 -219 c349 -557
643 -963 750 -1038 50 -34 78 -33 137 6 91 60 320 369 475 641 30 53 58 96 61
97 4 0 17 -53 29 -117 30 -161 94 -458 136 -636 l36 -147 -30 -38 c-134 -170
-244 -431 -316 -754 l-6 -28 920 0 c870 0 920 1 920 18 0 9 -7 57 -15 107 -41
255 -128 469 -252 621 l-45 55 46 277 c25 152 57 353 70 445 14 93 26 171 28
173 2 2 34 -47 71 -109 115 -189 146 -239 217 -337 151 -211 243 -299 309
-300 91 0 382 378 805 1047 80 128 146 234 146 236 0 7 -269 207 -278 207 -4
0 -81 -102 -172 -227 -90 -126 -187 -259 -215 -298 -28 -38 -91 -125 -139
-193 -49 -67 -90 -121 -92 -120 -1 2 -95 188 -208 413 -244 488 -334 649 -401
722 -50 54 -52 55 -135 69 -152 25 -147 26 -228 -72 -40 -47 -140 -177 -224
-289 -84 -112 -156 -204 -159 -204 -4 -1 -35 36 -70 82 -124 162 -254 314
-351 410 -112 111 -99 107 -278 81z m730 -649 c26 -32 -13 -81 -47 -59 -35 22
-23 74 17 74 10 0 23 -7 30 -15z m0 -150 c26 -32 -13 -81 -47 -59 -35 22 -23
74 17 74 10 0 23 -7 30 -15z m0 -150 c14 -17 5 -51 -16 -59 -35 -13 -73 41
-47 67 12 12 50 7 63 -8z m-6 -141 c31 -30 8 -69 -36 -62 -30 4 -38 46 -12 65
23 17 29 16 48 -3z"/>
</g>
</svg>
